<svg xmlns="http://www.w3.org/2000/svg" viewBox="0 0 1200 700" font-family="system-ui,-apple-system,sans-serif">
  <defs>
    <linearGradient id="bg" x1="0%" y1="0%" x2="100%" y2="100%">
      <stop offset="0%" style="stop-color:#0f172a"/>
      <stop offset="100%" style="stop-color:#1e293b"/>
    </linearGradient>
    <linearGradient id="accent" x1="0%" y1="0%" x2="100%" y2="0%">
      <stop offset="0%" style="stop-color:#0ea5e9"/>
      <stop offset="100%" style="stop-color:#38bdf8"/>
    </linearGradient>
  </defs>

  <rect width="1200" height="700" fill="url(#bg)" rx="16"/>

  <!-- Title -->
  <text x="600" y="48" fill="#f8fafc" font-size="26" font-weight="800" text-anchor="middle" letter-spacing="-0.5">Acido Grabador Dental: Comparativa de Precios por Jeringa</text>
  <rect x="200" y="60" width="800" height="3" rx="1.5" fill="url(#accent)" opacity="0.6"/>

  <!-- Subtitle -->
  <text x="600" y="88" fill="#94a3b8" font-size="14" text-anchor="middle">Todos los productos contienen acido fosforico al 35-37% — principio activo identico</text>

  <!-- Callout box -->
  <rect x="780" y="108" width="370" height="70" rx="10" fill="#0ea5e9" opacity="0.08" stroke="#0ea5e9" stroke-width="1.5"/>
  <text x="965" y="134" fill="#38bdf8" font-size="15" font-weight="700" text-anchor="middle">Mismo principio activo,</text>
  <text x="965" y="154" fill="#38bdf8" font-size="15" font-weight="700" text-anchor="middle">distinto precio</text>
  <text x="965" y="172" fill="#64748b" font-size="11" text-anchor="middle">Varianza de precio superior al 200%</text>

  <!-- Y-axis label -->
  <text x="55" y="130" fill="#64748b" font-size="12" font-weight="600">Marca</text>
  <text x="750" y="130" fill="#64748b" font-size="12" font-weight="600">Precio por jeringa (CLP)</text>

  <!-- Bar chart -->
  <!-- Bar 1: Potenza Attacco -->
  <text x="230" y="172" fill="#e2e8f0" font-size="13" font-weight="600" text-anchor="end">Potenza Attacco</text>
  <text x="230" y="186" fill="#64748b" font-size="10" text-anchor="end">Generico</text>
  <rect x="240" y="163" width="138" height="28" rx="4" fill="#22c55e" opacity="0.8"/>
  <text x="388" y="182" fill="#f8fafc" font-size="12" font-weight="700">$1.500</text>

  <!-- Bar 2: Indusbello -->
  <text x="230" y="222" fill="#e2e8f0" font-size="13" font-weight="600" text-anchor="end">Indusbello</text>
  <text x="230" y="236" fill="#64748b" font-size="10" text-anchor="end">Brasil</text>
  <rect x="240" y="213" width="184" height="28" rx="4" fill="#22c55e" opacity="0.7"/>
  <text x="434" y="232" fill="#f8fafc" font-size="12" font-weight="700">$2.000</text>

  <!-- Bar 3: Condac 37 (FGM) -->
  <text x="230" y="272" fill="#e2e8f0" font-size="13" font-weight="600" text-anchor="end">Condac 37 (FGM)</text>
  <text x="230" y="286" fill="#64748b" font-size="10" text-anchor="end">Brasil</text>
  <rect x="240" y="263" width="230" height="28" rx="4" fill="#f59e0b" opacity="0.7"/>
  <text x="480" y="282" fill="#f8fafc" font-size="12" font-weight="700">$2.500</text>

  <!-- Bar 4: Maquira -->
  <text x="230" y="322" fill="#e2e8f0" font-size="13" font-weight="600" text-anchor="end">Maquira</text>
  <text x="230" y="336" fill="#64748b" font-size="10" text-anchor="end">Brasil</text>
  <rect x="240" y="313" width="276" height="28" rx="4" fill="#f59e0b" opacity="0.7"/>
  <text x="526" y="332" fill="#f8fafc" font-size="12" font-weight="700">$3.000</text>

  <!-- Bar 5: Scotchbond Etchant (3M) -->
  <text x="230" y="372" fill="#e2e8f0" font-size="13" font-weight="600" text-anchor="end">Scotchbond Etchant</text>
  <text x="230" y="386" fill="#64748b" font-size="10" text-anchor="end">3M</text>
  <rect x="240" y="363" width="345" height="28" rx="4" fill="#f97316" opacity="0.7"/>
  <text x="595" y="382" fill="#f8fafc" font-size="12" font-weight="700">$3.750</text>

  <!-- Bar 6: Ultra-Etch (Ultradent) -->
  <text x="230" y="422" fill="#e2e8f0" font-size="13" font-weight="600" text-anchor="end">Ultra-Etch</text>
  <text x="230" y="436" fill="#64748b" font-size="10" text-anchor="end">Ultradent · Premium</text>
  <rect x="240" y="413" width="414" height="28" rx="4" fill="#ef4444" opacity="0.7"/>
  <text x="664" y="432" fill="#f8fafc" font-size="12" font-weight="700">$4.500+</text>

  <!-- Price scale markers -->
  <line x1="240" y1="150" x2="240" y2="455" stroke="#334155" stroke-width="1" opacity="0.5"/>
  <line x1="470" y1="150" x2="470" y2="455" stroke="#334155" stroke-width="0.5" stroke-dasharray="4" opacity="0.3"/>
  <line x1="700" y1="150" x2="700" y2="455" stroke="#334155" stroke-width="0.5" stroke-dasharray="4" opacity="0.3"/>
  <text x="240" y="468" fill="#475569" font-size="10" text-anchor="middle">$0</text>
  <text x="470" y="468" fill="#475569" font-size="10" text-anchor="middle">$2.500</text>
  <text x="700" y="468" fill="#475569" font-size="10" text-anchor="middle">$5.000</text>

  <!-- Bottom insight boxes -->
  <rect x="55" y="490" width="340" height="80" rx="10" fill="#1e293b" stroke="#334155" stroke-width="1"/>
  <text x="75" y="515" fill="#22c55e" font-size="13" font-weight="700">MEJOR VALOR</text>
  <text x="75" y="535" fill="#e2e8f0" font-size="15" font-weight="800">Potenza Attacco — $1.500</text>
  <text x="75" y="555" fill="#64748b" font-size="11">Acido fosforico 37% · Resultado clinico equivalente</text>

  <rect x="430" y="490" width="340" height="80" rx="10" fill="#1e293b" stroke="#334155" stroke-width="1"/>
  <text x="450" y="515" fill="#f59e0b" font-size="13" font-weight="700">RELACION CALIDAD-PRECIO</text>
  <text x="450" y="535" fill="#e2e8f0" font-size="15" font-weight="800">Condac 37 (FGM) — $2.500</text>
  <text x="450" y="555" fill="#64748b" font-size="11">Marca brasilena con amplia evidencia clinica</text>

  <rect x="805" y="490" width="340" height="80" rx="10" fill="#1e293b" stroke="#334155" stroke-width="1"/>
  <text x="825" y="515" fill="#ef4444" font-size="13" font-weight="700">PREMIUM</text>
  <text x="825" y="535" fill="#e2e8f0" font-size="15" font-weight="800">Ultra-Etch (Ultradent) — $4.500+</text>
  <text x="825" y="555" fill="#64748b" font-size="11">Viscosidad superior · Preferido por KOLs</text>

  <!-- Footer branding -->
  <rect x="0" y="590" width="1200" height="110" rx="0" fill="#0f172a" opacity="0.5"/>
  <rect x="40" y="620" width="36" height="36" rx="8" fill="#0ea5e9"/>
  <text x="58" y="646" fill="#fff" font-size="20" font-weight="800" text-anchor="middle">D</text>
  <text x="90" y="644" fill="#e2e8f0" font-size="18" font-weight="700">dentalprecios.cl</text>
  <text x="290" y="644" fill="#64748b" font-size="13">Precios actualizados Abril 2026</text>
  <text x="1160" y="644" fill="#475569" font-size="11" text-anchor="end">Fuentes: Proveedores dentales Chile · dentalprecios.cl</text>

  <!-- Key insight callout -->
  <rect x="40" y="665" width="1120" height="28" rx="4" fill="#0ea5e9" opacity="0.08"/>
  <text x="600" y="684" fill="#94a3b8" font-size="12" text-anchor="middle">El acido grabador es un commodity: 35-37% H₃PO₄ en todas las marcas. La diferencia es precio, no rendimiento clinico.</text>
</svg>